<svg xmlns="http://www.w3.org/2000/svg" viewBox="0 0 150 29" style="enable-background:new 0 0 150 29" xml:space="preserve"><path d="M1.9 28.8c-.5 0-1-.2-1.4-.6-.3-.3-.5-.7-.5-1.3V2.1c0-.6.2-1 .6-1.4C1 .3 1.4.2 2 .2h7.3c1.8 0 3.5.4 4.9 1.2 1.4.8 2.5 1.9 3.3 3.4.8 1.4 1.2 3.1 1.2 4.9 0 1.8-.4 3.4-1.2 4.8-.8 1.4-1.9 2.5-3.3 3.3-1.4.8-3 1.2-4.9 1.2H3.8v8c0 .5-.2 1-.5 1.4-.4.3-.8.4-1.4.4zm1.9-13.4h5.4c1.1 0 2.1-.2 3-.7.9-.5 1.5-1.2 2-2 .5-.9.7-1.8.7-2.9 0-1.2-.2-2.2-.7-3.1-.5-.9-1.2-1.6-2-2.1-.9-.5-1.8-.8-3-.8H3.8v11.6zm16.8 13.4c-.7 0-1.2-.3-1.6-.9-.4-.6-.4-1.2-.1-1.9L29.3 1.4c.4-.9 1-1.3 1.8-1.3.9 0 1.5.4 1.8 1.3l10.4 24.7c.3.7.2 1.3-.1 1.9-.4.6-.9.8-1.6.8-.4 0-.7-.1-1-.3-.3-.2-.6-.5-.7-.9L30.6 5h1l-9.3 22.6c-.2.4-.4.7-.8.9-.2.2-.5.3-.9.3zm2-6.3 1.5-3.2h14.4l1.5 3.2H22.6zm28.2 6.3c-.4 0-.8-.1-1.2-.4-.3-.3-.6-.6-.7-1.1L41.5 2.8c-.2-.8-.2-1.5.1-1.9.3-.5.7-.7 1.4-.7.4 0 .8.1 1.1.3.3.2.6.6.7 1.1L51.2 24h-.8l5.9-22.2c.1-.4.3-.7.7-.9.3-.2.7-.4 1.2-.4.4 0 .8.1 1.1.3.3.2.6.6.7 1L66 24h-.7l6.5-22.6c.2-.8.9-1.2 1.9-1.2.7 0 1.1.3 1.3.8.2.5.2 1.1 0 1.9l-7.4 24.5c-.2.5-.4.8-.8 1.1-.3.3-.7.4-1.2.4s-.9-.1-1.2-.4c-.3-.3-.6-.6-.7-1.1L57.8 4.5h.9l-6 22.8c-.2.5-.4.8-.8 1.1-.3.3-.7.4-1.1.4zm29.4 0c-.3 0-.6-.1-.8-.3-.2-.2-.3-.5-.3-.8V1.3c0-.3.1-.6.3-.8.2-.2.5-.3.8-.3h6.6c2.1 0 4 .3 5.8 1 1.8.7 3.3 1.7 4.6 3s2.3 2.8 3 4.5c.7 1.7 1 3.7 1 5.8 0 2.1-.3 4-1 5.8-.7 1.8-1.7 3.3-3 4.6s-2.8 2.3-4.6 3c-1.8.7-3.7 1-5.8 1h-6.6zm1.1-1.9h5.5c2.4 0 4.5-.5 6.3-1.6 1.8-1.1 3.3-2.5 4.3-4.4 1-1.9 1.6-4 1.6-6.4 0-2.4-.5-4.5-1.6-6.3-1-1.8-2.5-3.3-4.3-4.4-1.8-1.1-3.9-1.6-6.3-1.6h-5.5v24.7zm26.9 1.9c-.3 0-.6-.1-.8-.3-.2-.2-.3-.5-.3-.8V1.3c0-.3.1-.6.3-.8.2-.2.5-.3.8-.3h17.7c.3 0 .6.1.8.3.2.2.3.5.3.8 0 .3-.1.6-.3.8-.2.2-.5.3-.8.3h-16.6v11h12.2c.3 0 .6.1.8.3.2.2.3.5.3.8 0 .3-.1.6-.3.8-.2.2-.5.3-.8.3h-12.2v11h16.6c.3 0 .6.1.8.3.2.2.3.5.3.8 0 .3-.1.6-.3.8-.2.2-.5.3-.8.3h-17.7zm25.2 0c-.3 0-.6-.1-.8-.3-.2-.2-.3-.5-.3-.8V1.3c0-.3.1-.6.3-.8.2-.2.5-.3.8-.3h7c1.8 0 3.4.4 4.8 1.1 1.4.7 2.5 1.8 3.3 3.1.8 1.3 1.2 2.8 1.2 4.5 0 1.7-.4 3.1-1.2 4.4-.8 1.3-1.9 2.3-3.3 3-1.4.7-3 1.1-4.8 1.1h-5.9v10.3c0 .3-.1.6-.3.8-.2.2-.5.3-.8.3zm1.1-13.5h5.9c1.4 0 2.6-.3 3.6-.8 1-.6 1.9-1.3 2.5-2.3.6-1 .9-2.1.9-3.3 0-1.3-.3-2.4-.9-3.4-.6-1-1.4-1.7-2.5-2.3-1-.6-2.2-.8-3.6-.8h-5.9v12.9zm14.3 13.5c-.3 0-.5-.1-.6-.2l-.4-.4-7.3-11.7 2.3-.5 6.9 11.1c.3.5.4.9.2 1.2-.2.4-.6.5-1.1.5z"/></svg>