<svg xmlns="http://www.w3.org/2000/svg" viewBox="0 0 350 350"><rect fill="#0B4DB7" width="350" height="350" rx="25"/><path fill="#fff" d="M228.2 114.4c-.3-.2-.7-.4-1-.6-14.6-6.4-31 2.8-40.1 14.3-8.8 10.1-13.4 27.6-2.8 38.2 1.6 1.5 3.5 2.6 5.5 3.2 18 4.7 36-8.3 43.4-24.2 5.5-9.7 5.2-24.4-5-30.9zm-56.1-36.1c-8.3-5.2-20.1-1.1-26.5 5.9-12.9 13.6-18.5 37.4-5.6 52.9 1.3 1.3 2.8 2.4 4.5 3.1 12.1 5.3 24.7-3.8 30.7-14 8.2-13.2 11.3-32.6.3-45.2-1.1-1-2.2-1.9-3.4-2.7zm62.5 104c-14.7-8.5-33.7-.7-43.7 11.5-8.1 8.3-11.4 24.3-1.1 32.2 15.2 9.8 36.2.4 45.7-13.2 7.1-8.6 9-23.3-.9-30.5zM108.8 104c-6-4-14.3-4.3-20.3.5-16 12.9-19.1 40.6-4 55.4 6.4 6 16.4 4.6 22.6-.9 13.2-11.8 16.3-33.5 7.4-48.7-1.4-2.6-3.4-4.7-5.7-6.3zm44.1 71c-11.8-7.7-27.7-9.6-41.2-5.7-15.1 5-29.8 12.6-41.1 24-9.4 7.3-9.3 23 .8 29.7 11.9 8.3 27.8 6.8 40.3 14.2 11.3 5.2 16.9 16.5 23.8 26.1 5.6 8.5 17.3 14.3 26.8 8.5 8.8-6.5 10.2-18.7 11.4-28.9.3-17.5.5-36.1-7.2-52.2-3.1-6.7-7.9-11.9-13.6-15.7z"/><path fill="#fff" d="M175 12.5C85.4 12.5 12.5 85.4 12.5 175S85.4 337.5 175 337.5 337.5 264.6 337.5 175 264.6 12.5 175 12.5zm0 295.5c-73.4 0-133-59.5-133-133 0-73.4 59.5-133 133-133s133 59.5 133 133c0 73.4-59.6 133-133 133z"/></svg>